<?xml version="1.0" encoding="UTF-8"?>

<!DOCTYPE svg PUBLIC '-//W3C//DTD SVG 20001102//EN' 'http://www.w3.org/TR/2000/CR-SVG-20001102/DTD/svg-20001102.dtd'>
<svg style="fill-opacity:1; color-rendering:auto; color-interpolation:sRGB; text-rendering:auto; stroke:black; stroke-linecap:square; stroke-miterlimit:10; shape-rendering:auto; stroke-opacity:1; fill:black; stroke-dasharray:none; font-weight:normal; stroke-width:1; font-family:&apos;sansserif&apos;; font-style:normal; stroke-linejoin:miter; font-size:12; stroke-dashoffset:0; image-rendering:auto;" width="813" height="685">
  <title>Cases / Means of distribution ( Outer diagram / Inner diagram )
  </title>
  <desc>Current diagrams:
1) Cases
2) Means of distribution
  </desc>
  <!--Generated by the Batik Graphics2D SVG Generator-->
  <defs id="genericDefs" />
  <g>
    <g style="fill:rgb(204,204,204); stroke:rgb(204,204,204);">
      <rect x="0" y="0" width="813" style="stroke:none;" height="685" />
      <line transform="matrix(1.0200504566984618,0,0,1.0200504566984618,406.49999999999994,74.73675511665384)" x1="0" x2="150" y1="0" style="fill:none; stroke:black; stroke-width:3;" y2="150" />
      <line transform="matrix(1.0200504566984618,0,0,1.0200504566984618,406.49999999999994,74.73675511665384)" x1="0" x2="-150" y1="0" style="fill:none; stroke:rgb(178,178,178);" y2="150" />
      <line transform="matrix(1.0200504566984618,0,0,1.0200504566984618,406.49999999999994,74.73675511665384)" x1="150" x2="300" y1="150" style="fill:none; stroke:black; stroke-width:3;" y2="300" />
      <line transform="matrix(1.0200504566984618,0,0,1.0200504566984618,406.49999999999994,74.73675511665384)" x1="150" x2="0" y1="150" style="fill:none; stroke:black; stroke-width:3;" y2="300" />
      <line transform="matrix(1.0200504566984618,0,0,1.0200504566984618,406.49999999999994,74.73675511665384)" x1="300" x2="0" y1="300" style="fill:none; stroke:black; stroke-width:3;" y2="525" />
      <line transform="matrix(1.0200504566984618,0,0,1.0200504566984618,406.49999999999994,74.73675511665384)" x1="0" x2="0" y1="300" style="fill:none; stroke:black; stroke-width:3;" y2="525" />
      <line transform="matrix(1.0200504566984618,0,0,1.0200504566984618,406.49999999999994,74.73675511665384)" x1="-150" x2="-300" y1="150" style="fill:none; stroke:rgb(178,178,178);" y2="300" />
      <line transform="matrix(1.0200504566984618,0,0,1.0200504566984618,406.49999999999994,74.73675511665384)" x1="-300" x2="0" y1="300" style="fill:none; stroke:rgb(178,178,178);" y2="525" />
      <ellipse transform="matrix(1.0200504566984618,0,0,1.0200504566984618,406.49999999999994,74.73675511665384)" style="fill:white; stroke:none; stroke-width:3;" rx="94.91439676495744" cx="0" ry="72.76770418646737" cy="0" />
      <ellipse transform="matrix(1.0200504566984618,0,0,1.0200504566984618,406.49999999999994,74.73675511665384)" style="fill:none; stroke:black; stroke-width:3;" rx="94.91439676495744" cx="0" ry="72.76770418646737" cy="0" />
      <ellipse transform="matrix(1.0200504566984618,0,0,1.0200504566984618,406.49999999999994,74.73675511665384)" style="fill:white; stroke:none; stroke-width:3;" rx="94.91439676495744" cx="150" ry="72.76770418646737" cy="150" />
      <ellipse transform="matrix(1.0200504566984618,0,0,1.0200504566984618,406.49999999999994,74.73675511665384)" style="fill:none; stroke:red; stroke-width:3;" rx="94.91439676495744" cx="150" ry="72.76770418646737" cy="150" />
      <ellipse transform="matrix(1.0200504566984618,0,0,1.0200504566984618,406.49999999999994,74.73675511665384)" style="fill:white; stroke:none; stroke-width:3;" rx="94.91439676495742" cx="300" ry="72.76770418646736" cy="300" />
      <ellipse transform="matrix(1.0200504566984618,0,0,1.0200504566984618,406.49999999999994,74.73675511665384)" style="fill:none; stroke:black; stroke-width:3;" rx="94.91439676495742" cx="300" ry="72.76770418646736" cy="300" />
      <ellipse transform="matrix(1.0200504566984618,0,0,1.0200504566984618,406.49999999999994,74.73675511665384)" style="fill:white; stroke:none; stroke-width:3;" rx="94.91439676495744" cx="0" ry="72.76770418646736" cy="300" />
      <ellipse transform="matrix(1.0200504566984618,0,0,1.0200504566984618,406.49999999999994,74.73675511665384)" style="fill:none; stroke:black; stroke-width:3;" rx="94.91439676495744" cx="0" ry="72.76770418646736" cy="300" />
      <ellipse transform="matrix(1.0200504566984618,0,0,1.0200504566984618,406.49999999999994,74.73675511665384)" style="fill:white; stroke:none;" rx="94.91439676495742" cx="-150" ry="72.76770418646736" cy="150" />
      <ellipse transform="matrix(1.0200504566984618,0,0,1.0200504566984618,406.49999999999994,74.73675511665384)" style="fill:none; stroke:rgb(178,178,178);" rx="94.91439676495742" cx="-150" ry="72.76770418646736" cy="150" />
      <ellipse transform="matrix(1.0200504566984618,0,0,1.0200504566984618,406.49999999999994,74.73675511665384)" style="fill:white; stroke:none;" rx="94.91439676495742" cx="-300" ry="72.76770418646736" cy="300" />
      <ellipse transform="matrix(1.0200504566984618,0,0,1.0200504566984618,406.49999999999994,74.73675511665384)" style="fill:none; stroke:rgb(178,178,178);" rx="94.91439676495742" cx="-300" ry="72.76770418646736" cy="300" />
      <ellipse transform="matrix(1.0200504566984618,0,0,1.0200504566984618,406.49999999999994,74.73675511665384)" style="fill:white; stroke:none; stroke-width:3;" rx="94.91439676495744" cx="0" ry="72.76770418646736" cy="525" />
      <ellipse transform="matrix(1.0200504566984618,0,0,1.0200504566984618,406.49999999999994,74.73675511665384)" style="fill:none; stroke:black; stroke-width:3;" rx="94.91439676495744" cx="0" ry="72.76770418646736" cy="525" />
    </g>
    <g transform="matrix(1.0200504566984618,0,0,1.0200504566984618,406.49999999999994,74.73675511665384)" style="stroke-dasharray:4,4; stroke-miterlimit:1; stroke-linejoin:bevel; stroke-linecap:butt;">
      <line x1="150" x2="150" y1="77.23229581353263" style="fill:none;" y2="68.48229581353263" />
      <line x1="300" x2="300" y1="227.23229581353263" style="fill:none;" y2="218.48229581353263" />
      <line x1="0" x2="0" y1="227.23229581353263" style="fill:none;" y2="218.48229581353263" />
      <line x1="-150" x2="-150" y1="77.23229581353264" style="fill:none; stroke:rgb(178,178,178);" y2="68.48229581353264" />
      <line x1="-300" x2="-300" y1="227.23229581353263" style="fill:none; stroke:rgb(178,178,178);" y2="218.48229581353263" />
    </g>
    <g style="stroke-width:3;" transform="matrix(1.0200504566984618,0,0,1.0200504566984618,406.49999999999994,74.73675511665384)">
      <line x1="0" x2="-37.49808646923976" y1="-56.247129703859635" style="fill:none;" y2="-18.749043234619876" />
      <line x1="0" x2="37.49808646923976" y1="-56.247129703859635" style="fill:none; stroke:rgb(178,178,178); stroke-width:1;" y2="-18.749043234619876" />
      <line x1="-37.49808646923976" x2="-74.99617293847952" y1="-18.749043234619876" style="fill:none; stroke:rgb(178,178,178); stroke-width:1;" y2="18.749043234619883" />
      <line x1="-37.49808646923976" x2="0" y1="-18.749043234619876" style="fill:none; stroke:rgb(178,178,178); stroke-width:1;" y2="18.749043234619883" />
      <line x1="-74.99617293847952" x2="0" y1="18.749043234619883" style="fill:none; stroke:rgb(178,178,178); stroke-width:1;" y2="56.247129703859635" />
      <line x1="37.49808646923976" x2="74.99617293847952" y1="-18.749043234619876" style="fill:none; stroke:rgb(178,178,178); stroke-width:1;" y2="18.749043234619883" />
      <line x1="37.49808646923976" x2="0" y1="-18.749043234619876" style="fill:none; stroke:rgb(178,178,178); stroke-width:1;" y2="18.749043234619883" />
      <line x1="74.99617293847952" x2="0" y1="18.749043234619883" style="fill:none; stroke:rgb(178,178,178); stroke-width:1;" y2="56.247129703859635" />
      <line x1="0" x2="0" y1="18.749043234619883" style="fill:none; stroke:rgb(178,178,178); stroke-width:1;" y2="56.247129703859635" />
      <line x1="150" x2="112.50191353076025" y1="93.75287029614037" style="fill:none;" y2="131.25095676538012" />
      <line x1="150" x2="187.49808646923975" y1="93.75287029614037" style="fill:none; stroke:rgb(178,178,178); stroke-width:1;" y2="131.25095676538012" />
      <line x1="112.50191353076025" x2="75.00382706152048" y1="131.25095676538012" style="fill:none;" y2="168.74904323461988" />
      <line x1="112.50191353076025" x2="150" y1="131.25095676538012" style="fill:none;" y2="168.74904323461988" />
      <line x1="75.00382706152048" x2="150" y1="168.74904323461988" style="fill:none;" y2="206.24712970385963" />
      <line x1="187.49808646923975" x2="224.9961729384795" y1="131.25095676538012" style="fill:none; stroke:rgb(178,178,178); stroke-width:1;" y2="168.74904323461988" />
      <line x1="187.49808646923975" x2="150" y1="131.25095676538012" style="fill:none; stroke:rgb(178,178,178); stroke-width:1;" y2="168.74904323461988" />
      <line x1="224.9961729384795" x2="150" y1="168.74904323461988" style="fill:none; stroke:rgb(178,178,178); stroke-width:1;" y2="206.24712970385963" />
      <line x1="150" x2="150" y1="168.74904323461988" style="fill:none;" y2="206.24712970385963" />
      <line x1="300" x2="262.50191353076025" y1="243.75287029614037" style="fill:none; stroke:rgb(178,178,178); stroke-width:1;" y2="281.2509567653801" />
      <line x1="300" x2="337.49808646923975" y1="243.75287029614037" style="fill:none; stroke:rgb(178,178,178); stroke-width:1;" y2="281.2509567653801" />
      <line x1="262.50191353076025" x2="225.0038270615205" y1="281.2509567653801" style="fill:none;" y2="318.7490432346199" />
      <line x1="262.50191353076025" x2="300" y1="281.2509567653801" style="fill:none;" y2="318.7490432346199" />
      <line x1="225.0038270615205" x2="300" y1="318.7490432346199" style="fill:none;" y2="356.2471297038596" />
      <line x1="337.49808646923975" x2="374.9961729384795" y1="281.2509567653801" style="fill:none; stroke:rgb(178,178,178); stroke-width:1;" y2="318.7490432346199" />
      <line x1="337.49808646923975" x2="300" y1="281.2509567653801" style="fill:none; stroke:rgb(178,178,178); stroke-width:1;" y2="318.7490432346199" />
      <line x1="374.9961729384795" x2="300" y1="318.7490432346199" style="fill:none; stroke:rgb(178,178,178); stroke-width:1;" y2="356.2471297038596" />
      <line x1="300" x2="300" y1="318.7490432346199" style="fill:none;" y2="356.2471297038596" />
      <line x1="0" x2="-37.49808646923976" y1="243.75287029614037" style="fill:none; stroke:rgb(178,178,178); stroke-width:1;" y2="281.2509567653801" />
      <line x1="0" x2="37.49808646923976" y1="243.75287029614037" style="fill:none; stroke:rgb(178,178,178); stroke-width:1;" y2="281.2509567653801" />
      <line x1="-37.49808646923976" x2="-74.99617293847952" y1="281.2509567653801" style="fill:none;" y2="318.7490432346199" />
      <line x1="-37.49808646923976" x2="0" y1="281.2509567653801" style="fill:none;" y2="318.7490432346199" />
      <line x1="-74.99617293847952" x2="0" y1="318.7490432346199" style="fill:none;" y2="356.2471297038596" />
      <line x1="37.49808646923976" x2="74.99617293847952" y1="281.2509567653801" style="fill:none; stroke:rgb(178,178,178); stroke-width:1;" y2="318.7490432346199" />
      <line x1="37.49808646923976" x2="0" y1="281.2509567653801" style="fill:none; stroke:rgb(178,178,178); stroke-width:1;" y2="318.7490432346199" />
      <line x1="74.99617293847952" x2="0" y1="318.7490432346199" style="fill:none; stroke:rgb(178,178,178); stroke-width:1;" y2="356.2471297038596" />
      <line x1="0" x2="0" y1="318.7490432346199" style="fill:none;" y2="356.2471297038596" />
      <line x1="-150" x2="-187.49808646923975" y1="93.75287029614037" style="fill:none; stroke:rgb(178,178,178); stroke-width:1;" y2="131.25095676538012" />
      <line x1="-150" x2="-112.50191353076025" y1="93.75287029614037" style="fill:none; stroke:rgb(178,178,178); stroke-width:1;" y2="131.25095676538012" />
      <line x1="-187.49808646923975" x2="-224.9961729384795" y1="131.25095676538012" style="fill:none; stroke:rgb(178,178,178); stroke-width:1;" y2="168.74904323461988" />
      <line x1="-187.49808646923975" x2="-150" y1="131.25095676538012" style="fill:none; stroke:rgb(178,178,178); stroke-width:1;" y2="168.74904323461988" />
      <line x1="-224.9961729384795" x2="-150" y1="168.74904323461988" style="fill:none; stroke:rgb(178,178,178); stroke-width:1;" y2="206.24712970385963" />
      <line x1="-112.50191353076025" x2="-75.00382706152048" y1="131.25095676538012" style="fill:none; stroke:rgb(178,178,178); stroke-width:1;" y2="168.74904323461988" />
      <line x1="-112.50191353076025" x2="-150" y1="131.25095676538012" style="fill:none; stroke:rgb(178,178,178); stroke-width:1;" y2="168.74904323461988" />
      <line x1="-75.00382706152048" x2="-150" y1="168.74904323461988" style="fill:none; stroke:rgb(178,178,178); stroke-width:1;" y2="206.24712970385963" />
      <line x1="-150" x2="-150" y1="168.74904323461988" style="fill:none; stroke:rgb(178,178,178); stroke-width:1;" y2="206.24712970385963" />
      <line x1="-300" x2="-337.49808646923975" y1="243.75287029614037" style="fill:none; stroke:rgb(178,178,178); stroke-width:1;" y2="281.2509567653801" />
      <line x1="-300" x2="-262.50191353076025" y1="243.75287029614037" style="fill:none; stroke:rgb(178,178,178); stroke-width:1;" y2="281.2509567653801" />
      <line x1="-337.49808646923975" x2="-374.9961729384795" y1="281.2509567653801" style="fill:none; stroke:rgb(178,178,178); stroke-width:1;" y2="318.7490432346199" />
      <line x1="-337.49808646923975" x2="-300" y1="281.2509567653801" style="fill:none; stroke:rgb(178,178,178); stroke-width:1;" y2="318.7490432346199" />
      <line x1="-374.9961729384795" x2="-300" y1="318.7490432346199" style="fill:none; stroke:rgb(178,178,178); stroke-width:1;" y2="356.2471297038596" />
      <line x1="-262.50191353076025" x2="-225.0038270615205" y1="281.2509567653801" style="fill:none; stroke:rgb(178,178,178); stroke-width:1;" y2="318.7490432346199" />
      <line x1="-262.50191353076025" x2="-300" y1="281.2509567653801" style="fill:none; stroke:rgb(178,178,178); stroke-width:1;" y2="318.7490432346199" />
      <line x1="-225.0038270615205" x2="-300" y1="318.7490432346199" style="fill:none; stroke:rgb(178,178,178); stroke-width:1;" y2="356.2471297038596" />
      <line x1="-300" x2="-300" y1="318.7490432346199" style="fill:none; stroke:rgb(178,178,178); stroke-width:1;" y2="356.2471297038596" />
      <line x1="0" x2="-37.49808646923976" y1="468.7528702961404" style="fill:none; stroke:rgb(178,178,178); stroke-width:1;" y2="506.2509567653801" />
      <line x1="0" x2="37.49808646923976" y1="468.7528702961404" style="fill:none; stroke:rgb(178,178,178); stroke-width:1;" y2="506.2509567653801" />
      <line x1="-37.49808646923976" x2="-74.99617293847952" y1="506.2509567653801" style="fill:none;" y2="543.7490432346199" />
      <line x1="-37.49808646923976" x2="0" y1="506.2509567653801" style="fill:none;" y2="543.7490432346199" />
      <line x1="-74.99617293847952" x2="0" y1="543.7490432346199" style="fill:none;" y2="581.2471297038596" />
      <line x1="37.49808646923976" x2="74.99617293847952" y1="506.2509567653801" style="fill:none; stroke:rgb(178,178,178); stroke-width:1;" y2="543.7490432346199" />
      <line x1="37.49808646923976" x2="0" y1="506.2509567653801" style="fill:none; stroke:rgb(178,178,178); stroke-width:1;" y2="543.7490432346199" />
      <line x1="74.99617293847952" x2="0" y1="543.7490432346199" style="fill:none; stroke:rgb(178,178,178); stroke-width:1;" y2="581.2471297038596" />
      <line x1="0" x2="0" y1="543.7490432346199" style="fill:none;" y2="581.2471297038596" />
      <circle style="fill:rgb(0,0,150); stroke:none;" r="5.35686949560568" cx="0" cy="-56.247129703859635" />
      <circle r="5.35686949560568" style="fill:none;" cx="0" cy="-56.247129703859635" />
      <circle style="fill:rgb(48,48,150); stroke:none;" r="5.35686949560568" cx="-37.49808646923976" cy="-18.749043234619876" />
      <circle r="5.35686949560568" style="fill:none;" cx="-37.49808646923976" cy="-18.749043234619876" />
      <circle style="fill:rgb(221,221,223); stroke:none; stroke-width:1;" r="5.35686949560568" cx="-74.99617293847952" cy="18.749043234619883" />
      <circle style="fill:none; stroke:rgb(178,178,178); stroke-width:1;" r="5.35686949560568" cx="-74.99617293847952" cy="18.749043234619883" />
      <circle style="fill:rgb(211,211,223); stroke:none; stroke-width:1;" r="5.35686949560568" cx="37.49808646923976" cy="-18.749043234619876" />
      <circle style="fill:none; stroke:rgb(178,178,178); stroke-width:1;" r="5.35686949560568" cx="37.49808646923976" cy="-18.749043234619876" />
      <circle style="fill:rgb(240,240,223); stroke:none; stroke-width:1;" r="5.35686949560568" cx="74.99617293847952" cy="18.749043234619883" />
      <circle style="fill:none; stroke:rgb(178,178,178); stroke-width:1;" r="5.35686949560568" cx="74.99617293847952" cy="18.749043234619883" />
      <circle style="fill:rgb(226,226,223); stroke:none; stroke-width:1;" r="5.35686949560568" cx="0" cy="18.749043234619883" />
      <circle style="fill:none; stroke:rgb(178,178,178); stroke-width:1;" r="5.35686949560568" cx="0" cy="18.749043234619883" />
      <circle style="fill:rgb(255,255,223); stroke:none; stroke-width:1;" r="1.7856231652018932" cx="0" cy="56.247129703859635" />
      <circle style="fill:none; stroke:rgb(178,178,178); stroke-width:1;" r="1.7856231652018932" cx="0" cy="56.247129703859635" />
      <circle style="fill:rgb(90,90,150); stroke:none;" r="5.35686949560568" cx="150" cy="93.75287029614037" />
      <circle r="5.35686949560568" style="fill:none;" cx="150" cy="93.75287029614037" />
      <circle style="fill:rgb(129,129,150); stroke:none;" r="5.35686949560568" cx="112.50191353076025" cy="131.25095676538012" />
      <circle style="fill:none; stroke:red;" r="5.35686949560568" cx="112.50191353076025" cy="131.25095676538012" />
      <circle style="fill:rgb(188,188,150); stroke:none;" r="5.35686949560568" cx="75.00382706152048" cy="168.74904323461988" />
      <circle r="5.35686949560568" style="fill:none;" cx="75.00382706152048" cy="168.74904323461988" />
      <circle style="fill:rgb(225,225,223); stroke:none; stroke-width:1;" r="5.35686949560568" cx="187.49808646923975" cy="131.25095676538012" />
      <circle style="fill:none; stroke:rgb(178,178,178); stroke-width:1;" r="5.35686949560568" cx="187.49808646923975" cy="131.25095676538012" />
      <circle style="fill:rgb(243,243,223); stroke:none; stroke-width:1;" r="5.35686949560568" cx="224.9961729384795" cy="168.74904323461988" />
      <circle style="fill:none; stroke:rgb(178,178,178); stroke-width:1;" r="5.35686949560568" cx="224.9961729384795" cy="168.74904323461988" />
    </g>
    <g transform="matrix(1.0200504566984618,0,0,1.0200504566984618,406.49999999999994,74.73675511665384)" style="fill-opacity:0.9960784316062927; fill:rgb(195,195,150); stroke:rgb(195,195,150); stroke-width:3; stroke-opacity:0.9960784316062927;">
      <circle r="5.35686949560568" style="stroke:none;" cx="150" cy="168.74904323461988" />
    </g>
    <g style="stroke-width:3;" transform="matrix(1.0200504566984618,0,0,1.0200504566984618,406.49999999999994,74.73675511665384)">
      <circle r="5.35686949560568" style="fill:none;" cx="150" cy="168.74904323461988" />
      <circle style="fill:rgb(255,255,150); stroke:none;" r="1.7856231652018932" cx="150" cy="206.24712970385963" />
      <circle r="1.7856231652018932" style="fill:none;" cx="150" cy="206.24712970385963" />
      <circle style="fill:rgb(246,246,223); stroke:none; stroke-width:1;" r="5.35686949560568" cx="300" cy="243.75287029614037" />
      <circle style="fill:none; stroke:rgb(178,178,178); stroke-width:1;" r="5.35686949560568" cx="300" cy="243.75287029614037" />
      <circle style="fill:rgb(234,234,150); stroke:none;" r="5.35686949560568" cx="262.50191353076025" cy="281.2509567653801" />
      <circle r="5.35686949560568" style="fill:none;" cx="262.50191353076025" cy="281.2509567653801" />
      <circle style="fill:rgb(244,244,150); stroke:none;" r="5.35686949560568" cx="225.0038270615205" cy="318.7490432346199" />
      <circle r="5.35686949560568" style="fill:none;" cx="225.0038270615205" cy="318.7490432346199" />
    </g>
    <g transform="matrix(1.0200504566984618,0,0,1.0200504566984618,406.49999999999994,74.73675511665384)" style="fill:rgb(249,249,223); fill-opacity:0.9960784316062927; stroke-opacity:0.9960784316062927; stroke:rgb(249,249,223);">
      <circle r="5.35686949560568" style="stroke:none;" cx="337.49808646923975" cy="281.2509567653801" />
    </g>
    <g style="fill:rgb(178,178,178); stroke:rgb(178,178,178);" transform="matrix(1.0200504566984618,0,0,1.0200504566984618,406.49999999999994,74.73675511665384)">
      <circle r="5.35686949560568" style="fill:none;" cx="337.49808646923975" cy="281.2509567653801" />
      <circle style="fill:rgb(252,252,223); stroke:none;" r="5.35686949560568" cx="374.9961729384795" cy="318.7490432346199" />
      <circle r="5.35686949560568" style="fill:none;" cx="374.9961729384795" cy="318.7490432346199" />
      <circle style="fill:rgb(244,244,150); stroke:none; stroke-width:3;" r="5.35686949560568" cx="300" cy="318.7490432346199" />
      <circle style="fill:none; stroke:black; stroke-width:3;" r="5.35686949560568" cx="300" cy="318.7490432346199" />
      <circle style="fill:rgb(255,255,150); stroke:none; stroke-width:3;" r="1.7856231652018932" cx="300" cy="356.2471297038596" />
      <circle style="fill:none; stroke:black; stroke-width:3;" r="1.7856231652018932" cx="300" cy="356.2471297038596" />
      <circle style="fill:rgb(240,240,223); stroke:none;" r="5.35686949560568" cx="0" cy="243.75287029614037" />
      <circle r="5.35686949560568" style="fill:none;" cx="0" cy="243.75287029614037" />
    </g>
    <g transform="matrix(1.0200504566984618,0,0,1.0200504566984618,406.49999999999994,74.73675511665384)" style="fill-opacity:0.9960784316062927; fill:rgb(209,209,150); stroke:rgb(209,209,150); stroke-width:3; stroke-opacity:0.9960784316062927;">
      <circle r="5.35686949560568" style="stroke:none;" cx="-37.49808646923976" cy="281.2509567653801" />
    </g>
    <g style="stroke-width:3;" transform="matrix(1.0200504566984618,0,0,1.0200504566984618,406.49999999999994,74.73675511665384)">
      <circle r="5.35686949560568" style="fill:none;" cx="-37.49808646923976" cy="281.2509567653801" />
      <circle style="fill:rgb(234,234,150); stroke:none;" r="5.35686949560568" cx="-74.99617293847952" cy="318.7490432346199" />
      <circle r="5.35686949560568" style="fill:none;" cx="-74.99617293847952" cy="318.7490432346199" />
      <circle style="fill:rgb(246,246,223); stroke:none; stroke-width:1;" r="5.35686949560568" cx="37.49808646923976" cy="281.2509567653801" />
      <circle style="fill:none; stroke:rgb(178,178,178); stroke-width:1;" r="5.35686949560568" cx="37.49808646923976" cy="281.2509567653801" />
    </g>
    <g transform="matrix(1.0200504566984618,0,0,1.0200504566984618,406.49999999999994,74.73675511665384)" style="fill:rgb(253,253,223); fill-opacity:0.9960784316062927; stroke-opacity:0.9960784316062927; stroke:rgb(253,253,223);">
      <circle r="5.35686949560568" style="stroke:none;" cx="74.99617293847952" cy="318.7490432346199" />
    </g>
    <g style="fill:rgb(178,178,178); stroke:rgb(178,178,178);" transform="matrix(1.0200504566984618,0,0,1.0200504566984618,406.49999999999994,74.73675511665384)">
      <circle r="5.35686949560568" style="fill:none;" cx="74.99617293847952" cy="318.7490432346199" />
      <circle style="fill:rgb(230,230,150); stroke:none; stroke-width:3;" r="5.35686949560568" cx="0" cy="318.7490432346199" />
      <circle style="fill:none; stroke:black; stroke-width:3;" r="5.35686949560568" cx="0" cy="318.7490432346199" />
      <circle style="fill:rgb(255,255,150); stroke:none; stroke-width:3;" r="1.7856231652018932" cx="0" cy="356.2471297038596" />
      <circle style="fill:none; stroke:black; stroke-width:3;" r="1.7856231652018932" cx="0" cy="356.2471297038596" />
      <circle style="fill:rgb(227,227,223); stroke:none;" r="5.35686949560568" cx="-150" cy="93.75287029614037" />
      <circle r="5.35686949560568" style="fill:none;" cx="-150" cy="93.75287029614037" />
      <circle style="fill:rgb(230,230,223); stroke:none;" r="5.35686949560568" cx="-187.49808646923975" cy="131.25095676538012" />
      <circle r="5.35686949560568" style="fill:none;" cx="-187.49808646923975" cy="131.25095676538012" />
    </g>
    <g transform="matrix(1.0200504566984618,0,0,1.0200504566984618,406.49999999999994,74.73675511665384)" style="fill:rgb(241,241,223); fill-opacity:0.9960784316062927; stroke-opacity:0.9960784316062927; stroke:rgb(241,241,223);">
      <circle r="5.35686949560568" style="stroke:none;" cx="-224.9961729384795" cy="168.74904323461988" />
    </g>
    <g style="fill:rgb(178,178,178); stroke:rgb(178,178,178);" transform="matrix(1.0200504566984618,0,0,1.0200504566984618,406.49999999999994,74.73675511665384)">
      <circle r="5.35686949560568" style="fill:none;" cx="-224.9961729384795" cy="168.74904323461988" />
    </g>
    <g transform="matrix(1.0200504566984618,0,0,1.0200504566984618,406.49999999999994,74.73675511665384)" style="fill:rgb(241,241,223); fill-opacity:0.9960784316062927; stroke-opacity:0.9960784316062927; stroke:rgb(241,241,223);">
      <circle r="5.35686949560568" style="stroke:none;" cx="-112.50191353076025" cy="131.25095676538012" />
    </g>
    <g style="fill:rgb(178,178,178); stroke:rgb(178,178,178);" transform="matrix(1.0200504566984618,0,0,1.0200504566984618,406.49999999999994,74.73675511665384)">
      <circle r="5.35686949560568" style="fill:none;" cx="-112.50191353076025" cy="131.25095676538012" />
      <circle style="fill:rgb(251,251,223); stroke:none;" r="5.35686949560568" cx="-75.00382706152048" cy="168.74904323461988" />
      <circle r="5.35686949560568" style="fill:none;" cx="-75.00382706152048" cy="168.74904323461988" />
      <circle style="fill:rgb(244,244,223); stroke:none;" r="5.35686949560568" cx="-150" cy="168.74904323461988" />
      <circle r="5.35686949560568" style="fill:none;" cx="-150" cy="168.74904323461988" />
      <circle style="fill:rgb(255,255,223); stroke:none;" r="1.7856231652018932" cx="-150" cy="206.24712970385963" />
      <circle r="1.7856231652018932" style="fill:none;" cx="-150" cy="206.24712970385963" />
      <circle style="fill:rgb(250,250,223); stroke:none;" r="5.35686949560568" cx="-300" cy="243.75287029614037" />
      <circle r="5.35686949560568" style="fill:none;" cx="-300" cy="243.75287029614037" />
      <circle style="fill:rgb(251,251,223); stroke:none;" r="5.35686949560568" cx="-337.49808646923975" cy="281.2509567653801" />
      <circle r="5.35686949560568" style="fill:none;" cx="-337.49808646923975" cy="281.2509567653801" />
      <circle style="fill:rgb(252,252,223); stroke:none;" r="5.35686949560568" cx="-374.9961729384795" cy="318.7490432346199" />
      <circle r="5.35686949560568" style="fill:none;" cx="-374.9961729384795" cy="318.7490432346199" />
      <circle style="fill:rgb(252,252,223); stroke:none;" r="5.35686949560568" cx="-262.50191353076025" cy="281.2509567653801" />
      <circle r="5.35686949560568" style="fill:none;" cx="-262.50191353076025" cy="281.2509567653801" />
    </g>
    <g transform="matrix(1.0200504566984618,0,0,1.0200504566984618,406.49999999999994,74.73675511665384)" style="fill:rgb(253,253,223); fill-opacity:0.9960784316062927; stroke-opacity:0.9960784316062927; stroke:rgb(253,253,223);">
      <circle r="5.35686949560568" style="stroke:none;" cx="-225.0038270615205" cy="318.7490432346199" />
    </g>
    <g style="fill:rgb(178,178,178); stroke:rgb(178,178,178);" transform="matrix(1.0200504566984618,0,0,1.0200504566984618,406.49999999999994,74.73675511665384)">
      <circle r="5.35686949560568" style="fill:none;" cx="-225.0038270615205" cy="318.7490432346199" />
    </g>
    <g transform="matrix(1.0200504566984618,0,0,1.0200504566984618,406.49999999999994,74.73675511665384)" style="fill:rgb(253,253,223); fill-opacity:0.9960784316062927; stroke-opacity:0.9960784316062927; stroke:rgb(253,253,223);">
      <circle r="5.35686949560568" style="stroke:none;" cx="-300" cy="318.7490432346199" />
    </g>
    <g style="fill:rgb(178,178,178); stroke:rgb(178,178,178);" transform="matrix(1.0200504566984618,0,0,1.0200504566984618,406.49999999999994,74.73675511665384)">
      <circle r="5.35686949560568" style="fill:none;" cx="-300" cy="318.7490432346199" />
      <circle style="fill:rgb(255,255,223); stroke:none;" r="1.7856231652018932" cx="-300" cy="356.2471297038596" />
      <circle r="1.7856231652018932" style="fill:none;" cx="-300" cy="356.2471297038596" />
      <circle style="fill:rgb(255,255,223); stroke:none;" r="1.7856231652018932" cx="0" cy="468.7528702961404" />
      <circle r="1.7856231652018932" style="fill:none;" cx="0" cy="468.7528702961404" />
      <circle style="fill:rgb(255,255,150); stroke:none; stroke-width:3;" r="1.7856231652018932" cx="-37.49808646923976" cy="506.2509567653801" />
      <circle style="fill:none; stroke:black; stroke-width:3;" r="1.7856231652018932" cx="-37.49808646923976" cy="506.2509567653801" />
      <circle style="fill:rgb(255,255,150); stroke:none; stroke-width:3;" r="1.7856231652018932" cx="-74.99617293847952" cy="543.7490432346199" />
      <circle style="fill:none; stroke:black; stroke-width:3;" r="1.7856231652018932" cx="-74.99617293847952" cy="543.7490432346199" />
      <circle style="fill:rgb(255,255,223); stroke:none;" r="1.7856231652018932" cx="37.49808646923976" cy="506.2509567653801" />
      <circle r="1.7856231652018932" style="fill:none;" cx="37.49808646923976" cy="506.2509567653801" />
      <circle style="fill:rgb(255,255,223); stroke:none;" r="1.7856231652018932" cx="74.99617293847952" cy="543.7490432346199" />
      <circle r="1.7856231652018932" style="fill:none;" cx="74.99617293847952" cy="543.7490432346199" />
      <circle style="fill:rgb(255,255,150); stroke:none; stroke-width:3;" r="1.7856231652018932" cx="0" cy="543.7490432346199" />
      <circle style="fill:none; stroke:black; stroke-width:3;" r="1.7856231652018932" cx="0" cy="543.7490432346199" />
      <circle style="fill:rgb(255,255,150); stroke:none; stroke-width:3;" r="5.35686949560568" cx="0" cy="581.2471297038596" />
      <circle style="fill:none; stroke:black; stroke-width:3;" r="5.35686949560568" cx="0" cy="581.2471297038596" />
    </g>
    <g transform="matrix(1.0200504566984618,0,0,1.0200504566984618,406.49999999999994,74.73675511665384)" style="stroke-dasharray:4,4; stroke-miterlimit:1; stroke-linejoin:bevel; stroke-linecap:butt;">
      <line x1="-37.49808646923976" x2="-37.49808646923975" y1="-24.105912730225555" style="fill:none;" y2="-41.605912730225555" />
      <line x1="-74.99617293847952" x2="-74.99617293847952" y1="13.392173739014204" style="fill:none; stroke:rgb(178,178,178);" y2="-4.107826260985796" />
      <line x1="37.49808646923976" x2="37.49808646923976" y1="-24.105912730225555" style="fill:none; stroke:rgb(178,178,178);" y2="-41.605912730225555" />
      <line x1="74.99617293847952" x2="74.99617293847952" y1="13.392173739014204" style="fill:none; stroke:rgb(178,178,178);" y2="-4.107826260985796" />
      <line x1="0" x2="0" y1="13.392173739014204" style="fill:none; stroke:rgb(178,178,178);" y2="-4.107826260985796" />
      <line x1="75.00382706152048" x2="75.00382706152048" y1="174.10591273022555" style="fill:none;" y2="195.10591273022555" />
      <line x1="224.9961729384795" x2="224.9961729384795" y1="174.10591273022555" style="fill:none; stroke:rgb(178,178,178);" y2="195.10591273022555" />
      <line x1="150" x2="150" y1="174.10591273022555" style="fill:none;" y2="195.10591273022555" />
      <line x1="225.0038270615205" x2="225.0038270615205" y1="324.10591273022555" style="fill:none;" y2="345.10591273022555" />
      <line x1="374.9961729384795" x2="374.9961729384795" y1="324.10591273022555" style="fill:none; stroke:rgb(178,178,178);" y2="345.10591273022555" />
      <line x1="300" x2="300" y1="324.10591273022555" style="fill:none;" y2="345.10591273022555" />
      <line x1="-74.99617293847952" x2="-74.99617293847952" y1="324.10591273022555" style="fill:none;" y2="345.10591273022555" />
      <line x1="74.99617293847952" x2="74.99617293847952" y1="324.10591273022555" style="fill:none; stroke:rgb(178,178,178);" y2="345.10591273022555" />
      <line x1="0" x2="0" y1="324.10591273022555" style="fill:none;" y2="345.10591273022555" />
      <line x1="-224.9961729384795" x2="-224.9961729384795" y1="174.10591273022555" style="fill:none; stroke:rgb(178,178,178);" y2="195.10591273022555" />
      <line x1="-75.00382706152048" x2="-75.00382706152048" y1="174.10591273022555" style="fill:none; stroke:rgb(178,178,178);" y2="195.10591273022555" />
      <line x1="-150" x2="-150" y1="174.10591273022555" style="fill:none; stroke:rgb(178,178,178);" y2="195.10591273022555" />
      <line x1="-374.9961729384795" x2="-374.9961729384795" y1="324.10591273022555" style="fill:none; stroke:rgb(178,178,178);" y2="345.10591273022555" />
      <line x1="-225.0038270615205" x2="-225.0038270615205" y1="324.10591273022555" style="fill:none; stroke:rgb(178,178,178);" y2="345.10591273022555" />
      <line x1="-300" x2="-300" y1="324.10591273022555" style="fill:none; stroke:rgb(178,178,178);" y2="345.10591273022555" />
    </g>
    <g transform="matrix(1.0200504566984618,0,0,1.0200504566984618,406.49999999999994,74.73675511665384)" style="fill:white; font-size:10; font-family:sans-serif; stroke:white;">
      <rect x="-115.99617293847952" y="-18.107826260985796" width="82" style="stroke:none;" height="14" />
      <rect x="-115.99617293847952" y="-18.107826260985796" width="82" style="fill:none; stroke:rgb(178,178,178);" height="14" />
      <text x="-111.99617004394531" y="-7.107826232910156" style="fill:rgb(178,178,178); stroke:none;">only direct sales
      </text>
      <rect x="47.49617293847952" y="-18.107826260985796" width="55" style="stroke:none;" height="14" />
      <rect x="47.49617293847952" y="-18.107826260985796" width="55" style="fill:none; stroke:rgb(178,178,178);" height="14" />
      <text x="51.49617385864258" y="-7.107826232910156" style="fill:rgb(178,178,178); stroke:none;">only shops
      </text>
      <rect x="218.9961729384795" y="195.10591273022555" width="12" style="stroke:none;" height="14" />
      <rect x="218.9961729384795" y="195.10591273022555" width="12" style="fill:none; stroke:rgb(178,178,178);" height="14" />
      <text x="222.9961700439453" y="206.1059112548828" style="fill:rgb(178,178,178); stroke:none;">8
      </text>
      <rect x="368.9961729384795" y="345.10591273022555" width="12" style="stroke:none;" height="14" />
      <rect x="368.9961729384795" y="345.10591273022555" width="12" style="fill:none; stroke:rgb(178,178,178);" height="14" />
      <text x="372.9961853027344" y="356.1059265136719" style="fill:rgb(178,178,178); stroke:none;">2
      </text>
      <rect x="277" y="204.48229581353263" width="46" style="stroke:none;" height="14" />
      <rect x="277" y="204.48229581353263" width="46" style="fill:none; stroke:black;" height="14" />
      <text x="281" y="215.4822998046875" style="fill:black; stroke:none;">Slimline
      </text>
      <rect x="-233.9961729384795" y="195.10591273022555" width="18" style="stroke:none;" height="14" />
      <rect x="-233.9961729384795" y="195.10591273022555" width="18" style="fill:none; stroke:rgb(178,178,178);" height="14" />
      <text x="-229.9961700439453" y="206.1059112548828" style="fill:rgb(178,178,178); stroke:none;">11
      </text>
      <rect x="-81.00382706152048" y="195.10591273022555" width="12" style="stroke:none;" height="14" />
      <rect x="-81.00382706152048" y="195.10591273022555" width="12" style="fill:none; stroke:rgb(178,178,178);" height="14" />
      <text x="-77.00382995605469" y="206.1059112548828" style="fill:rgb(178,178,178); stroke:none;">2
      </text>
      <rect x="-156" y="195.10591273022555" width="12" style="stroke:none;" height="14" />
      <rect x="-156" y="195.10591273022555" width="12" style="fill:none; stroke:rgb(178,178,178);" height="14" />
      <text x="-152" y="206.1059112548828" style="fill:rgb(178,178,178); stroke:none;">9
      </text>
      <rect x="-167.5" y="54.482295813532645" width="35" style="stroke:none;" height="14" />
      <rect x="-167.5" y="54.482295813532645" width="35" style="fill:none; stroke:rgb(178,178,178);" height="14" />
      <text x="-163.5" y="65.48229217529297" style="fill:rgb(178,178,178); stroke:none;">Tower
      </text>
      <rect x="-380.9961729384795" y="345.10591273022555" width="12" style="stroke:none;" height="14" />
      <rect x="-380.9961729384795" y="345.10591273022555" width="12" style="fill:none; stroke:rgb(178,178,178);" height="14" />
      <text x="-376.9961853027344" y="356.1059265136719" style="fill:rgb(178,178,178); stroke:none;">2
      </text>
      <rect x="-231.0038270615205" y="345.10591273022555" width="12" style="stroke:none;" height="14" />
      <rect x="-231.0038270615205" y="345.10591273022555" width="12" style="fill:none; stroke:rgb(178,178,178);" height="14" />
      <text x="-227.0038299560547" y="356.1059265136719" style="fill:rgb(178,178,178); stroke:none;">1
      </text>
      <rect x="-306" y="345.10591273022555" width="12" style="stroke:none;" height="14" />
      <rect x="-306" y="345.10591273022555" width="12" style="fill:none; stroke:rgb(178,178,178);" height="14" />
      <text x="-302" y="356.1059265136719" style="fill:rgb(178,178,178); stroke:none;">1
      </text>
      <rect x="-329.5" y="204.48229581353263" width="59" style="stroke:none;" height="14" />
      <rect x="-329.5" y="204.48229581353263" width="59" style="fill:none; stroke:rgb(178,178,178);" height="14" />
      <text x="-325.5" y="215.4822998046875" style="fill:rgb(178,178,178); stroke:none;">Mini-Tower
      </text>
      <rect x="68.99617293847952" y="345.10591273022555" width="12" style="stroke:none;" height="14" />
      <rect x="68.99617293847952" y="345.10591273022555" width="12" style="fill:none; stroke:rgb(178,178,178);" height="14" />
      <text x="72.99617004394531" y="356.1059265136719" style="fill:rgb(178,178,178); stroke:none;">1
      </text>
      <rect x="-38" y="204.48229581353263" width="76" style="stroke:none;" height="14" />
      <rect x="-38" y="204.48229581353263" width="76" style="fill:none; stroke:black;" height="14" />
      <text x="-34" y="215.4822998046875" style="fill:black; stroke:none;">Small-footprint
      </text>
      <rect x="21.49808646923976" y="-55.605912730225555" width="32" style="stroke:none;" height="14" />
      <rect x="21.49808646923976" y="-55.605912730225555" width="32" style="fill:none; stroke:rgb(178,178,178);" height="14" />
      <text x="24.49808692932129" y="-44.60591125488281" style="fill:rgb(178,178,178); stroke:none;">shops
      </text>
      <rect x="-27.5" y="-18.107826260985796" width="55" style="stroke:none;" height="14" />
      <rect x="-27.5" y="-18.107826260985796" width="55" style="fill:none; stroke:rgb(178,178,178);" height="14" />
      <text x="-23.5" y="-7.107826232910156" style="fill:rgb(178,178,178); stroke:none;">both forms
      </text>
      <rect x="-66.99808646923975" y="-55.605912730225555" width="59" style="stroke:none;" height="14" />
      <rect x="-66.99808646923975" y="-55.605912730225555" width="59" style="fill:none; stroke:black;" height="14" />
      <text x="-63.998085021972656" y="-44.60591125488281" style="fill:black; stroke:none;">direct sales
      </text>
      <rect x="66.00382706152048" y="195.10591273022555" width="18" style="stroke:none;" height="14" />
      <rect x="66.00382706152048" y="195.10591273022555" width="18" style="fill:none; stroke:black;" height="14" />
      <text x="70.00382995605469" y="206.1059112548828" style="fill:black; stroke:none;">10
      </text>
      <rect x="144" y="195.10591273022555" width="12" style="stroke:none;" height="14" />
      <rect x="144" y="195.10591273022555" width="12" style="fill:none; stroke:black;" height="14" />
      <text x="148" y="206.1059112548828" style="fill:black; stroke:none;">7
      </text>
      <rect x="129" y="54.48229581353263" width="42" style="stroke:none;" height="14" />
      <rect x="129" y="54.48229581353263" width="42" style="fill:none; stroke:black;" height="14" />
      <text x="133" y="65.48229217529297" style="fill:black; stroke:none;">Desktop
      </text>
      <rect x="219.0038270615205" y="345.10591273022555" width="12" style="stroke:none;" height="14" />
      <rect x="219.0038270615205" y="345.10591273022555" width="12" style="fill:none; stroke:black;" height="14" />
      <text x="223.0038299560547" y="356.1059265136719" style="fill:black; stroke:none;">3
      </text>
      <rect x="294" y="345.10591273022555" width="12" style="stroke:none;" height="14" />
      <rect x="294" y="345.10591273022555" width="12" style="fill:none; stroke:black;" height="14" />
      <text x="298" y="356.1059265136719" style="fill:black; stroke:none;">3
      </text>
      <rect x="-80.99617293847952" y="345.10591273022555" width="12" style="stroke:none;" height="14" />
      <rect x="-80.99617293847952" y="345.10591273022555" width="12" style="fill:none; stroke:black;" height="14" />
      <text x="-76.99617004394531" y="356.1059265136719" style="fill:black; stroke:none;">6
      </text>
      <rect x="-6" y="345.10591273022555" width="12" style="stroke:none;" height="14" />
      <rect x="-6" y="345.10591273022555" width="12" style="fill:none; stroke:black;" height="14" />
      <text x="-2" y="356.1059265136719" style="fill:black; stroke:none;">7
      </text>
    </g>
  </g>
</svg>
